<?xml version="1.0" ?><svg id="Layer_1" style="enable-background:new -77 4.387 292.861 442.802;" version="1.1" viewBox="-77 4.387 292.861 442.802" xml:space="preserve" xmlns="http://www.w3.org/2000/svg" xmlns:xlink="http://www.w3.org/1999/xlink"><g id="Coffee"><path d="M5.438,118.016c0,0-23.6,269.43,151.396,267.672l-3.521,47.443H-17.974l-21.539-315.115H5.438z" style="fill:#C9711A;"/><path d="M201.803,54.171h-11.509l-5.321-37.689c-0.981-6.94-6.915-12.095-13.92-12.095H-32.193   c-7.005,0-12.938,5.155-13.92,12.094l-5.321,37.689h-11.509C-70.706,54.171-77,60.465-77,68.228v48.617   c0,7.763,6.294,14.057,14.057,14.057h8.521l20.211,303.163c0.494,7.386,6.627,13.124,14.026,13.124h179.229   c7.399,0,13.532-5.738,14.026-13.124l20.211-303.163h8.521c7.763,0,14.057-6.294,14.057-14.057V68.228   C215.861,60.465,209.566,54.171,201.803,54.171z M-48.886,102.787V82.285h236.632v20.502H-48.886z M-19.982,32.501h178.824   L161.9,54.17H-23.04L-19.982,32.501z M-7.033,419.074l-7.42-111.287h32.586c12.832,14.788,31.502,23.423,51.297,23.423   s38.465-8.635,51.301-23.423h32.583l-7.42,111.287H-7.033z M154.94,279.673h-41.08c-4.63,0-8.964,2.282-11.586,6.099   c-7.451,10.848-19.73,17.324-32.844,17.324c-13.113,0-25.389-6.476-32.837-17.324c-2.622-3.816-6.957-6.099-11.59-6.099H-16.08   l-1.894-32.806H25c4.63,0,8.964-2.279,11.586-6.099c7.451-10.848,19.73-17.324,32.844-17.324c13.113,0,25.393,6.476,32.844,17.324   c2.622,3.82,6.957,6.099,11.586,6.099h42.975L154.94,279.673z M159.249,218.752h-38.518   c-12.835-14.788-31.505-23.423-51.301-23.423s-38.465,8.635-51.301,23.423h-38.518l-5.857-87.851h191.351L159.249,218.752z" style="fill:#352517;"/></g><g id="Layer_1_1_"/></svg>